<?xml version="1.0" encoding="UTF-8"?>
<svg id="Layer_1" data-name="Layer 1" xmlns="http://www.w3.org/2000/svg" viewBox="0 0 258.19 41.39">
  <path d="M.01,24.72s.08-.08.11-.12.04-.11.04-.18c.2-.16.42-.39.68-.68s.54-.62.85-1.01c.26-.35.52-.7.8-1.05s.57-.7.89-1.05c.26-.35.51-.72.76-1.1s.52-.75.8-1.12c.47-.22.83-.38,1.09-.47s.43-.14.53-.14c.18,0,.31.06.4.17s.14.27.14.48c0,.07-.02.17-.05.3s-.08.27-.12.42c-.08.23-.18.47-.28.72-.09.41-.21.82-.33,1.23s-.25.81-.37,1.21c-.12.5-.21.97-.27,1.39s-.1.81-.1,1.16c0,.66.03,1.14.1,1.46s.16.46.27.42c.12-.07.26-.16.44-.25s.38-.21.62-.34c.21-.22.45-.5.71-.83s.58-.71.96-1.16c.21-.33.43-.65.65-.97.08-.09.18-.21.29-.33.11-.13.21-.26.31-.39.22-.56.47-.98.75-1.26s.58-.41.92-.41c.3,0,.55.04.73.11s.31.19.38.34c.04.08.06.22.09.42s.04.46.04.79c0,.13.03.32.08.56s.08.43.08.54c0,.43.08.76.23.98s.39.33.7.33c.09,0,.21-.02.33-.05s.26-.08.39-.12l.7,1.62c-.7.42-1.28.74-1.73.96s-.79.33-1.01.33c-.59,0-1.07-.15-1.44-.46s-.65-.76-.83-1.35c-.02-.14-.07-.28-.15-.42s-.17-.28-.29-.42c-.11.12-.23.26-.36.42s-.28.33-.43.49c-.32.39-.63.76-.95,1.13s-.64.74-.97,1.1c-.41.48-.82.83-1.24,1.05s-.81.33-1.17.33c-.54,0-.97-.16-1.3-.48s-.54-.8-.63-1.43c-.11-.61-.18-1.08-.21-1.42s-.04-.54-.02-.62c-.02-.34-.06-.6-.1-.77s-.1-.26-.18-.26l-.11.05-1,1.04c-.04.08-.09.18-.18.31s-.19.27-.33.45c-.05-.18-.13-.39-.25-.65s-.27-.58-.46-.97Z"/>
  <path d="M14.64,24.72c.11-.12.21-.26.32-.43s.25-.35.42-.55l1.16-1.02s.07-.08.08-.14,0-.14,0-.25c-.01-.15-.03-.28-.05-.37,0-.27.05-.72.16-1.35s.2-1.01.28-1.14l-.11-.33c.15-.79.37-1.64.64-2.58s.59-1.94.94-3.03c.12-.19.24-.42.37-.71s.28-.61.44-.98c.2-.61.46-1.25.79-1.92s.7-1.35,1.11-2.06c.55-.93,1.04-1.62,1.47-2.09s.81-.7,1.15-.7c.68,0,1.15.13,1.4.4s.38.76.38,1.49c0,.19-.03.48-.1.87s-.1.69-.1.89-.06.48-.19.84-.19.7-.19,1c-.01.09-.04.19-.09.28l.02.25c-.05.16-.12.36-.21.6s-.22.52-.37.84c-.08.29-.19.63-.32,1.02s-.28.81-.46,1.27c-.07.12-.16.26-.27.43s-.23.36-.36.57c-.04.15-.09.33-.18.53s-.19.43-.33.7c-.07.14-.16.29-.28.46s-.26.38-.42.63c-.07.12-.15.26-.23.44s-.18.38-.28.6c-.13.2-.3.45-.51.74s-.45.64-.72,1.04c-.36.64-.74,1.26-1.12,1.85,0,1.14.23,2,.68,2.58s1.13.87,2.03.87c.06,0,.23-.04.53-.12s.7-.21,1.21-.39c.15-.09.33-.23.54-.4s.45-.37.72-.61l.69,1.62c-.3.27-.61.54-.91.83s-.62.56-.93.83c-.36.3-.73.54-1.11.69s-.74.24-1.11.24c-.19,0-.47-.02-.86-.06s-.68-.06-.88-.06c-.66,0-1.2-.26-1.63-.79s-.73-1.32-.91-2.37c-.02-.11-.06-.2-.1-.28s-.11-.18-.22-.28c-.15.15-.33.33-.54.54s-.45.45-.75.72l-.7-1.62ZM23.02,10.92l-.12-.07c-.66.63-1.15,1.23-1.49,1.79s-.5,1.11-.5,1.63c0,.08-.04.22-.11.41s-.19.44-.34.75c-.19.36-.38.76-.58,1.2-.22.66-.39,1.19-.51,1.6s-.18.7-.18.88l.11.14c.11-.01.23-.12.39-.32s.33-.49.53-.88c.09-.21.23-.46.4-.74s.38-.62.6-1c.19-.26.49-.92.9-1.99s.63-1.75.67-2.04c.01-.23.04-.47.1-.69s.1-.45.15-.68Z"/>
  <path d="M24.55,24.72l.07-.14c.07-.09.16-.21.27-.35s.24-.3.4-.49c.83-.77,1.64-1.7,2.43-2.77s1.57-2.31,2.35-3.7c.09-.13.2-.3.32-.51s.25-.47.39-.79c0-.07-.02-.12-.05-.16s-.09-.05-.18-.05c-.07,0-.18.02-.34.06s-.28.06-.36.06h-2.2c-.09,0-.25,0-.47-.02s-.37-.02-.47-.02c-.12-.06-.23-.11-.33-.15s-.2-.08-.29-.13c-.14-.05-.25-.11-.33-.18s-.11-.17-.11-.27c0-.75.08-1.32.24-1.72s.4-.6.73-.6.64.01.92.04c.29.03.54.07.77.11.18-.04.34-.07.49-.11.32,0,.59.01.81.04.22.02.39.05.51.09.15-.04.3-.07.45-.1l.48-.1.58.18c.41-.05.85-.62,1.31-1.72.46-1.1.96-1.65,1.49-1.65.28,0,.5.09.65.26s.23.43.23.77c0,.27-.08.62-.24,1.06-.16.44-.25.77-.27.99.02.05.05.1.09.15.04.05.1.11.18.18.07.05.12.13.15.24s.04.25.04.41c0,.7-.03,1.25-.1,1.63-.06.38-.17.58-.31.59l-1.19.25c-.02.12-.05.26-.09.43s-.08.37-.14.59c-.2.59-.42,1.33-.67,2.23s-.52,1.97-.83,3.2c-.19.98-.33,1.78-.43,2.39-.1.61-.15,1.02-.15,1.23,0,.19.03.33.09.42s.15.14.26.14c.07,0,.33-.17.76-.51s1.05-.84,1.84-1.51l.69,1.62c-.12.13-.28.28-.49.46s-.46.36-.76.56c-.12.13-.26.27-.44.43s-.37.34-.58.55c-.21.23-.42.47-.62.7s-.41.46-.62.69c-.28.3-.56.52-.83.66s-.52.2-.76.2c-.52,0-.9-.15-1.15-.46s-.38-.77-.38-1.39c0-.68.02-1.27.07-1.77s.12-.9.23-1.2c.05-.09.08-.18.11-.25,0-.12.02-.28.05-.47s.08-.43.12-.7c.07-.46.15-.91.23-1.37.13-.28.26-.58.4-.9,0-.06-.05-.11-.14-.16l-.18.11c-.18.28-.4.58-.69.89-.28.31-.62.64-1,.98-.6.57-1.21,1.15-1.83,1.74-.04.06-.1.15-.19.26s-.2.26-.32.44c-.06-.14-.13-.32-.22-.54s-.18-.47-.27-.75c-.02-.07-.05-.13-.09-.19s-.08-.11-.12-.14Z"/>
  <path d="M34.29,24.72l.11-.12.05-.18c.32-.43.87-1,1.67-1.7.8-.7,1.35-1.26,1.65-1.7.12-.19.25-.32.4-.4s.3-.12.46-.12c.41,0,.76.1,1.04.31s.47.51.56.92c.08.36.16.73.23,1.1.07.37.13.74.18,1.12.08.23.18.59.3,1.06s.21.75.26.82c.06.12.15.2.26.25s.26.08.44.08c.21,0,.43-.04.65-.11s.45-.21.69-.4c.18-.15.36-.31.55-.47s.38-.31.57-.47l.7,1.62c-.19.19-.44.4-.75.64s-.68.52-1.12.83c-.48.35-.89.61-1.23.78s-.6.25-.77.25c-1.07,0-1.76-.12-2.07-.37s-.67-.93-1.05-2.06c-.05-.09-.12-.21-.21-.33s-.2-.28-.32-.46c-.14-.27-.26-.47-.37-.61s-.19-.2-.26-.2c-.19,0-.44.13-.76.38s-.7.63-1.16,1.13c-.06-.15-.13-.33-.22-.54s-.18-.46-.27-.74c-.02-.07-.05-.13-.09-.19s-.08-.11-.12-.14ZM41.64,10.85c.29,0,.51.06.64.18s.2.29.2.51c-.07.33-.13.6-.18.83-.12.42-.22.77-.31,1.04s-.16.46-.2.58c-.11.26-.25.48-.43.68s-.4.37-.66.52c-.27.19-.5.32-.68.4s-.31.11-.38.1c-.2-.02-.39-.04-.57-.06s-.36-.03-.54-.03c-.15-.08-.27-.24-.36-.47s-.13-.55-.13-.95c0-.35.21-.79.64-1.33s.81-.82,1.13-.85c.2-.25.43-.53.7-.84.12-.08.27-.15.46-.2s.4-.08.65-.08Z"/>
  <path d="M44.35,24.72c.07-.08.15-.19.25-.33.09-.13.2-.28.32-.45.52-.64,1.02-1.22,1.5-1.73s.95-.96,1.38-1.36c.22-.21.49-.48.81-.82s.69-.72,1.11-1.15c.42-.16.89-.35,1.39-.56.32,0,.55.1.7.31s.23.5.23.89c0,.33-.03.68-.08,1.06s-.13.77-.22,1.17c-.11.32-.19.62-.26.91,0,.08.02.14.05.18s.09.06.18.06c.18-.08.52-.37,1.02-.88s1.17-1.21,1.99-2.11c.7-.77,1.32-1.35,1.85-1.73s.95-.57,1.27-.57c.34,0,.59.13.75.38s.24.62.24,1.12c0,.71-.05,1.4-.16,2.07s-.29,1.3-.54,1.91c-.05.12-.08.22-.09.3s-.02.16-.02.23c0,.08.07.16.21.23.09-.08.2-.2.32-.35s.27-.35.43-.58c.27-.22.54-.44.81-.67.27-.22.56-.45.88-.69.33-.26.66-.45,1-.59s.67-.2,1-.2c.06,0,.12.02.18.05.06.04.12.08.18.12.27.23.49.45.67.64s.3.36.37.5c.46.94.86,1.64,1.22,2.1s.67.69.94.69c.06,0,.12-.01.18-.04s.12-.07.18-.11c.27.57.5,1.11.69,1.62-.42.33-.8.58-1.12.75-.33.17-.62.25-.86.25-.81,0-1.64-.52-2.5-1.57s-1.52-1.57-1.98-1.57c-.61,0-1.62.9-3.04,2.7-1.42,1.8-2.3,2.7-2.65,2.7-.18,0-.41-.02-.7-.05-.09-.04-.16-.11-.21-.22s-.07-.24-.07-.4c0-.18.04-.41.11-.69s.16-.62.28-1.01c.15-.49.28-.88.37-1.18s.15-.5.16-.62c.04-.15.08-.45.15-.9s.15-1.04.25-1.77c0-.13-.04-.23-.11-.3s-.15-.11-.25-.11c-.08,0-.17.03-.27.08s-.21.14-.34.25c-.14.15-.3.3-.47.46s-.44.37-.82.65c-.41.47-.83.95-1.26,1.43s-.86.98-1.31,1.47c-.7.82-1.26,1.43-1.68,1.82s-.68.59-.8.59c-.35,0-.62-.04-.8-.12s-.27-.21-.27-.37c0-.39.21-1.19.63-2.42.42-1.22.63-2.09.63-2.59,0-.08-.03-.15-.08-.2s-.12-.08-.2-.08c-.14,0-.31.08-.5.24s-.41.41-.66.75c-.17.19-.36.4-.6.65-.24.25-.52.53-.86.86-.04.09-.08.18-.14.27-.06.09-.12.17-.19.25-.05-.18-.13-.39-.25-.65s-.27-.58-.46-.97Z"/>
  <path d="M67.09,23.95l1.6-1.05c.06-.06.13-.14.21-.24s.18-.24.28-.43c.08-.15.19-.28.33-.39s.29-.2.47-.28c.09-.12.23-.26.4-.44s.4-.38.67-.62c.13-.07.29-.17.49-.31s.42-.31.65-.54c1.07-1.01,2-1.76,2.8-2.27s1.48-.76,2.03-.76c.3,0,.53.06.68.19s.22.31.22.54c0,.25-.04.46-.13.65s-.23.35-.41.47c-.29.21-.61.45-.95.7-.19.25-.42.51-.69.78s-.59.55-.95.82c-.12.15-.22.29-.3.4-.06.06-.17.16-.33.32s-.38.33-.65.53c-.12.26-.37.59-.76,1-.39.41-.92.9-1.57,1.48-.08.08-.23.27-.44.56s-.49.68-.83,1.16l.12.16c.26-.08.53-.22.81-.42s.59-.46.93-.79c.4-.36.72-.66.98-.89s.43-.38.54-.45l.25-.14c.08-.05.18-.11.28-.18.54-.64,1.04-1.12,1.51-1.43s.9-.47,1.3-.47c.25,0,.43.1.56.29s.21.48.23.87c-.02.59-.04,1.15-.04,1.69-.01.38.09.71.31,1.01s.5.45.85.45c.11,0,.21-.03.31-.09s.2-.13.31-.23c.08-.11.16-.21.24-.3s.16-.19.24-.28c.05-.02.11-.06.2-.12s.17-.13.25-.21c.16.35.3.66.41.92s.2.5.25.69c-.27.25-.54.5-.8.76s-.54.51-.83.75c-.35.27-.69.47-1.02.61s-.66.2-.98.2c-.76,0-1.35-.22-1.76-.65s-.65-1.09-.72-1.97c0-.11-.01-.21-.04-.33s-.09-.23-.18-.34c-.06.06-.12.12-.19.18s-.15.15-.25.25l-.57.44c-.23.18-.5.39-.8.63-.41.42-.76.77-1.04,1.04s-.48.46-.6.58c-.23.2-.51.4-.82.6s-.66.4-1.05.62c-.25.13-.46.23-.63.31s-.3.11-.39.11c-.56,0-.98-.14-1.25-.41s-.4-.7-.4-1.27c0-.32.07-.62.2-.91s.34-.57.61-.83c.02-.15.04-.28.04-.37,0-.06-.01-.12-.04-.18s-.07-.14-.11-.22l-.24-.55c-.09-.21-.18-.42-.29-.66.05-.05.11-.14.2-.27s.19-.3.31-.5Z"/>
  <path d="M80.05,24.72l.07-.14c.07-.09.16-.21.27-.35s.24-.3.4-.49c.83-.77,1.64-1.7,2.43-2.77s1.57-2.31,2.35-3.7c.09-.13.2-.3.32-.51s.25-.47.39-.79c0-.07-.02-.12-.05-.16s-.09-.05-.18-.05c-.07,0-.18.02-.34.06s-.28.06-.36.06h-2.2c-.09,0-.25,0-.47-.02s-.37-.02-.47-.02c-.12-.06-.23-.11-.33-.15s-.2-.08-.29-.13c-.14-.05-.25-.11-.33-.18s-.11-.17-.11-.27c0-.75.08-1.32.24-1.72s.4-.6.73-.6.64.01.92.04c.29.03.54.07.77.11.18-.04.34-.07.49-.11.32,0,.59.01.81.04.22.02.39.05.51.09.15-.04.3-.07.45-.1l.48-.1.58.18c.41-.05.85-.62,1.31-1.72.46-1.1.96-1.65,1.49-1.65.28,0,.5.09.65.26s.23.43.23.77c0,.27-.08.62-.24,1.06-.16.44-.25.77-.27.99.02.05.05.1.09.15.04.05.1.11.18.18.07.05.12.13.15.24s.04.25.04.41c0,.7-.03,1.25-.1,1.63-.06.38-.17.58-.31.59l-1.19.25c-.02.12-.05.26-.09.43s-.08.37-.14.59c-.2.59-.42,1.33-.67,2.23s-.52,1.97-.83,3.2c-.19.98-.33,1.78-.43,2.39-.1.61-.15,1.02-.15,1.23,0,.19.03.33.09.42s.15.14.26.14c.07,0,.33-.17.76-.51s1.05-.84,1.84-1.51l.69,1.62c-.12.13-.28.28-.49.46s-.46.36-.76.56c-.12.13-.26.27-.44.43s-.37.34-.58.55c-.21.23-.42.47-.62.7s-.41.46-.62.69c-.28.3-.56.52-.83.66s-.52.2-.76.2c-.52,0-.9-.15-1.15-.46s-.38-.77-.38-1.39c0-.68.02-1.27.07-1.77s.12-.9.23-1.2c.05-.09.08-.18.11-.25,0-.12.02-.28.05-.47s.08-.43.12-.7c.07-.46.15-.91.23-1.37.13-.28.26-.58.4-.9,0-.06-.05-.11-.14-.16l-.18.11c-.18.28-.4.58-.69.89-.28.31-.62.64-1,.98-.6.57-1.21,1.15-1.83,1.74-.04.06-.1.15-.19.26s-.2.26-.32.44c-.06-.14-.13-.32-.22-.54s-.18-.47-.27-.75c-.02-.07-.05-.13-.09-.19s-.08-.11-.12-.14Z"/>
  <path d="M89.79,24.72c.14-.25.32-.5.54-.75s.5-.51.84-.78c.04-.23.07-.47.11-.69s.06-.46.07-.69c.04-.16.09-.36.17-.58s.16-.46.25-.72c.11-.26.25-.58.43-.97s.42-.82.71-1.3c.25-.27.5-.57.77-.89s.54-.65.81-.98c.13-.11.27-.21.42-.3s.3-.2.46-.32c.14-.05.3-.09.47-.12s.37-.05.58-.05c.29,0,.53.03.71.09s.33.16.45.3c.08.09.16.23.24.42s.15.42.22.69c.04.23.08.49.12.77,0-.07-.02-.04-.06.09s-.1.33-.18.62l-.16.56c-.16.56-.53,1.21-1.11,1.95s-1.35,1.58-2.32,2.53c-.08.08-.15.18-.21.31s-.09.25-.09.4c0,.25.04.46.13.65s.21.33.38.42c.09.07.24.14.45.21s.45.13.73.19c.46-.04.87-.11,1.25-.23s.71-.26,1-.42c.06-.04.15-.08.28-.15s.26-.15.39-.25c.15.34.29.64.4.91s.21.5.28.7c-.67.66-1.27,1.15-1.82,1.49s-1.05.5-1.5.5c-.19.12-.4.2-.64.25s-.52.08-.85.08c-.43,0-.82-.06-1.15-.19s-.61-.32-.83-.56c-.12-.12-.23-.29-.35-.52s-.24-.5-.37-.82c-.11-.26-.21-.45-.3-.57s-.2-.18-.32-.18c-.09,0-.2.04-.32.13s-.25.22-.39.4c-.05-.18-.13-.39-.25-.65s-.27-.58-.46-.97ZM95.41,19.01c-.26,0-.6.34-1.04,1.01s-.65,1.17-.65,1.49c0,.07.01.12.04.15s.09.04.18.04c.13,0,.23-.07.32-.2s.16-.26.23-.38c.13-.12.25-.24.38-.38s.24-.27.36-.4c.14-.16.25-.33.32-.49s.11-.33.11-.49c0-.11-.02-.19-.06-.25s-.1-.1-.18-.1Z"/>
  <path d="M98.63,24.72l.11-.12c.05-.16.15-.34.31-.53s.38-.38.68-.56c.39-.25.69-.45.91-.6.22-.15.35-.26.4-.33.11-.13.18-.23.21-.3.13-.09.29-.22.47-.39s.4-.36.63-.6c.08-.06.17-.15.26-.28s.19-.28.28-.44c.15-.11.33-.24.52-.4s.42-.38.68-.63c.29-.32.62-.67.99-1.05s.78-.78,1.24-1.19c.15-.07.3-.13.43-.17s.27-.06.4-.06c.53,0,.92.13,1.19.38s.4.61.4,1.08c0,.12-.02.31-.06.58s-.08.61-.13,1.02c-.16,1.18-.28,1.9-.35,2.16s-.32,1.07-.74,2.43c-.09.22-.19.5-.29.83s-.22.73-.36,1.2c.02.05.08.09.18.14.08,0,.23-.08.44-.24s.49-.4.84-.71c.41-.38.73-.66.97-.86s.38-.32.44-.35l.39.87c.12.26.22.51.3.75-.15.09-.29.2-.41.32s-.24.25-.34.39c-.25.16-.53.35-.85.56s-.68.44-1.06.69c-.18.18-.41.39-.71.64s-.64.54-1.01.85l-.33.07c-.16.22-.32.39-.47.51s-.28.2-.4.25c-.19.07-.38.14-.56.2s-.39.13-.6.2c-.13-.04-.22-.11-.28-.23s-.08-.27-.07-.46c-.18-.32-.32-.68-.42-1.09s-.16-.87-.16-1.37c0-.09,0-.19.02-.3s.02-.2.04-.28c-.08-.3-.12-.49-.12-.54,0-.35.13-.64.4-.87s.57-.34.91-.34c.18,0,.3.09.38.27s.16.27.24.27.17-.16.25-.48.17-.79.25-1.42c.08-.54.13-1.01.16-1.41.02-.4.04-.7.04-.91,0-.15-.03-.27-.1-.34s-.17-.11-.33-.11-.64.35-1.48,1.05c-.83.7-1.99,1.75-3.48,3.15-.05.08-.11.18-.2.3s-.19.26-.31.44c-.05-.18-.13-.39-.25-.65s-.27-.58-.46-.97Z"/>
  <path d="M109.63,24.72s.08-.08.11-.12.04-.11.04-.18c.2-.16.42-.39.68-.68s.54-.62.85-1.01c.26-.35.52-.7.8-1.05s.57-.7.89-1.05c.26-.35.51-.72.76-1.1s.52-.75.8-1.12c.47-.22.83-.38,1.09-.47s.43-.14.53-.14c.18,0,.31.06.4.17s.14.27.14.48c0,.07-.02.17-.05.3s-.08.27-.12.42c-.08.23-.18.47-.28.72-.09.41-.21.82-.33,1.23s-.25.81-.37,1.21c-.12.5-.21.97-.27,1.39s-.1.81-.1,1.16c0,.66.03,1.14.1,1.46s.16.46.27.42c.12-.07.26-.16.44-.25s.38-.21.62-.34c.21-.22.45-.5.71-.83s.58-.71.96-1.16c.21-.33.43-.65.65-.97.08-.09.18-.21.29-.33.11-.13.21-.26.31-.39.22-.56.47-.98.75-1.26s.58-.41.92-.41c.3,0,.55.04.73.11s.31.19.38.34c.04.08.06.22.09.42s.04.46.04.79c0,.13.03.32.08.56s.08.43.08.54c0,.43.08.76.23.98s.39.33.7.33c.09,0,.21-.02.33-.05s.26-.08.39-.12l.7,1.62c-.7.42-1.28.74-1.73.96s-.79.33-1.01.33c-.59,0-1.07-.15-1.44-.46s-.65-.76-.83-1.35c-.02-.14-.07-.28-.15-.42s-.17-.28-.29-.42c-.11.12-.23.26-.36.42s-.28.33-.43.49c-.32.39-.63.76-.95,1.13s-.64.74-.97,1.1c-.41.48-.82.83-1.24,1.05s-.81.33-1.17.33c-.54,0-.97-.16-1.3-.48s-.54-.8-.63-1.43c-.11-.61-.18-1.08-.21-1.42s-.04-.54-.02-.62c-.02-.34-.06-.6-.1-.77s-.1-.26-.18-.26l-.11.05-1,1.04c-.04.08-.09.18-.18.31s-.19.27-.33.45c-.05-.18-.13-.39-.25-.65s-.27-.58-.46-.97Z"/>
  <path d="M124.26,24.72c.23-.3.54-.67.91-1.1s.82-.92,1.34-1.47c.04-.11.08-.23.14-.38s.15-.33.26-.55c.62-.93,1.18-1.82,1.67-2.67s.91-1.69,1.27-2.5c.11-.2.22-.45.34-.75s.28-.64.47-1.01c.16-.28.33-.5.48-.65s.31-.23.47-.23c.23,0,.41.1.52.3s.17.51.17.93c0,.23-.2.99-.61,2.28s-1,3.09-1.8,5.42c-.21.56-.45,1.35-.7,2.36s-.56,2.28-.9,3.79c-.04.22-.07.48-.11.77s-.1.63-.18,1.02c-.2.75-.34,1.35-.42,1.79s-.12.73-.11.86l.07.14c.06-.04.13-.15.2-.33s.14-.46.2-.81c.07-.32.12-.58.16-.8s.04-.4.02-.54c.26-.68.56-1.55.91-2.61s.76-2.29,1.23-3.7c.19-.34.4-.75.64-1.24.24-.49.5-1.06.76-1.73.27-.26.51-.45.73-.57s.4-.18.55-.18c.33,0,.63.09.91.26s.54.43.77.77c.06.08.17.29.33.62s.37.79.64,1.36c.15.35.31.62.47.82s.32.3.47.31l.74,1.62c-.06.01-.21.05-.47.12s-.61.15-1.08.23l-1.2-.44c-.29-.08-.65-.37-1.06-.86s-.75-.78-1.01-.86c-.25.18-.51.52-.79,1.04s-.57,1.18-.86,2c-.07.19-.16.39-.27.61s-.23.47-.34.75c-.07.45-.15.87-.25,1.28-.15.35-.32.8-.49,1.34s-.36,1.19-.56,1.94c-.06.26-.21.64-.45,1.16s-.38.91-.43,1.18c-.02.16-.07.38-.15.65s-.19.59-.34.95c-.27.47-.52.82-.74,1.06s-.41.36-.56.36c-.35,0-.62-.17-.79-.51s-.26-.84-.26-1.51c0-1.01.06-2.12.18-3.32s.29-2.5.53-3.88c.07-.4.15-.8.23-1.21s.16-.83.25-1.25c.11-.49.18-.94.22-1.35s.05-.78.03-1.11c-.12.04-.31.18-.59.45s-.62.66-1.05,1.19c-.05-.18-.13-.39-.25-.65s-.27-.58-.46-.97Z"/>
  <path d="M136.54,24.72c.14-.25.32-.5.54-.75s.5-.51.84-.78c.04-.23.07-.47.11-.69s.06-.46.07-.69c.04-.16.09-.36.17-.58s.16-.46.25-.72c.11-.26.25-.58.43-.97s.42-.82.71-1.3c.25-.27.5-.57.77-.89s.54-.65.81-.98c.13-.11.27-.21.42-.3s.3-.2.46-.32c.14-.05.3-.09.47-.12s.37-.05.58-.05c.29,0,.53.03.71.09s.33.16.45.3c.08.09.16.23.24.42s.15.42.22.69c.04.23.08.49.12.77,0-.07-.02-.04-.06.09s-.1.33-.18.62l-.16.56c-.16.56-.53,1.21-1.11,1.95s-1.35,1.58-2.32,2.53c-.08.08-.15.18-.21.31s-.09.25-.09.4c0,.25.04.46.13.65s.21.33.38.42c.09.07.24.14.45.21s.45.13.73.19c.46-.04.87-.11,1.25-.23s.71-.26,1-.42c.06-.04.15-.08.28-.15s.26-.15.39-.25c.15.34.29.64.4.91s.21.5.28.7c-.67.66-1.27,1.15-1.82,1.49s-1.05.5-1.5.5c-.19.12-.4.2-.64.25s-.52.08-.85.08c-.43,0-.82-.06-1.15-.19s-.61-.32-.83-.56c-.12-.12-.23-.29-.35-.52s-.24-.5-.37-.82c-.11-.26-.21-.45-.3-.57s-.2-.18-.32-.18c-.09,0-.2.04-.32.13s-.25.22-.39.4c-.05-.18-.13-.39-.25-.65s-.27-.58-.46-.97ZM142.17,19.01c-.26,0-.6.34-1.04,1.01s-.65,1.17-.65,1.49c0,.07.01.12.04.15s.09.04.18.04c.13,0,.23-.07.32-.2s.16-.26.23-.38c.13-.12.25-.24.38-.38s.24-.27.36-.4c.14-.16.25-.33.32-.49s.11-.33.11-.49c0-.11-.02-.19-.06-.25s-.1-.1-.18-.1Z"/>
  <path d="M145.39,24.72c.19-.25.38-.5.56-.77.86-.7,1.56-1.38,2.1-2.03s.94-1.26,1.19-1.82l-.18-.84c.15-.29.53-.64,1.13-1.04s1.09-.6,1.47-.6c.4,0,.74.12,1.01.35s.54.48.8.74c.13.08.22.15.28.19.47.35.82.84,1.05,1.46s.35,1.38.35,2.27c0,.47-.18,1.14-.54,2.01s-.54,1.53-.54,1.98c0,.06.02.11.06.14s.1.05.17.05c.15,0,.33-.07.54-.2s.44-.32.69-.55c.62-.61,1-.95,1.12-1.01s.29-.17.47-.33c.09.23.21.49.33.76s.25.56.37.86c-.11.09-.23.21-.36.33s-.3.28-.48.44c-.4.29-.92.65-1.56,1.06s-1.4.89-2.29,1.43c-.23.15-.5.28-.81.37-.49,0-.86-.07-1.11-.22s-.37-.38-.37-.71c0-.13.03-.28.08-.45s.13-.35.22-.55c.07-.15.15-.31.23-.47s.15-.32.21-.48c.26-.74.45-1.42.59-2.06s.2-1.2.2-1.71c0-.62-.1-1.1-.29-1.42s-.48-.52-.87-.56c-.26.14-.54.34-.84.6s-.62.58-.93.97c-.34.42-.64.77-.91,1.04s-.49.45-.67.54c-.11.18-.28.38-.51.6s-.54.46-.93.72l-.11.21c-.05.09-.12.2-.23.32-.09-.27-.2-.54-.32-.8s-.25-.54-.39-.82Z"/>
  <path d="M157.11,24.72l.11-.12.05-.18c.21-.26.39-.46.54-.61s.27-.26.35-.34c.06-.06.19-.13.39-.23s.47-.21.81-.35l.23-.14c.08-.13.23-.32.44-.56s.46-.53.76-.84c.06-.07.15-.15.26-.23s.24-.19.37-.32c.28-.27.56-.55.84-.83s.54-.57.79-.85c.11-.11.32-.3.65-.57s.77-.66,1.34-1.15c.08-.06.23-.14.44-.25s.49-.24.83-.4c.15-.07.27-.18.34-.34s.11-.36.11-.61c.09-.15.18-.34.27-.55s.17-.47.25-.76c.12-.36.21-.66.27-.89s.11-.38.15-.47c.2-.53.47-1.15.81-1.85s.74-1.52,1.21-2.43c.23-.48.51-1.01.83-1.6.2-.29.42-.51.67-.66s.5-.22.77-.22c.21,0,.37.08.47.25s.15.4.15.72c0,.5-.04.98-.11,1.44s-.2.88-.39,1.28c-.04.08-.06.21-.09.37s-.05.36-.07.6c-.01.16-.06.32-.13.47s-.17.29-.29.42c0,.08-.01.18-.04.29s-.05.24-.07.4l-.25.32c-.02.07-.04.16-.04.25v.31c0,.07-.04.21-.12.41s-.21.5-.37.87c-.19.4-.34.71-.45.95s-.17.38-.18.44c-.05.06-.11.15-.18.28s-.17.28-.27.44l.05.39-1.12,4.04c0,.45,0,.83.02,1.14s.05.57.11.76c.06.2.16.44.29.73s.31.59.52.92c.13.22.28.38.46.48s.36.15.56.15c.22,0,.45-.06.68-.18s.46-.31.69-.57c.14.3.27.59.4.86s.23.52.31.76c-.06.04-.18.16-.38.36s-.45.5-.76.87c-.19.22-.42.38-.69.48s-.61.15-1.01.15c-.88,0-1.59-.23-2.14-.69s-.94-1.14-1.16-2.06l-.12-.49c-.04-.14-.07-.27-.11-.39-.08-.22-.22-.46-.42-.72-.08.12-.15.21-.19.26-.14.09-.3.23-.47.4s-.34.4-.52.67c-.04.12-.1.26-.19.43s-.22.37-.39.61c-.38.43-.76.87-1.14,1.31s-.77.87-1.16,1.29c-.53.59-1.01,1.02-1.46,1.29s-.83.41-1.16.41c-.59,0-1.02-.14-1.3-.41s-.42-.71-.42-1.29c0-.27.1-.65.3-1.13s.3-.85.3-1.08l-.11-.28-.7-1.62ZM165.95,19.69c0-.06-.02-.15-.07-.26-.18.18-.39.38-.65.62s-.56.49-.91.77c-.08.19-.27.48-.56.89s-.7.91-1.23,1.5c-.15.18-.36.48-.62.91s-.57.95-.95,1.57c-.13.25-.26.54-.4.9,0,.07.05.15.14.23.35-.11.78-.41,1.29-.92s1.12-1.22,1.82-2.12c.73-.96,1.27-1.78,1.62-2.45s.53-1.22.53-1.63Z"/>
  <path d="M171.81,24.72l.11-.12.05-.18c.32-.43.87-1,1.67-1.7.8-.7,1.35-1.26,1.65-1.7.12-.19.25-.32.4-.4s.3-.12.46-.12c.41,0,.76.1,1.04.31s.47.51.56.92c.08.36.16.73.23,1.1.07.37.13.74.18,1.12.08.23.18.59.3,1.06s.21.75.26.82c.06.12.15.2.26.25s.26.08.44.08c.21,0,.43-.04.65-.11s.45-.21.69-.4c.18-.15.36-.31.55-.47s.38-.31.57-.47l.7,1.62c-.19.19-.44.4-.75.64s-.68.52-1.12.83c-.48.35-.89.61-1.23.78s-.6.25-.77.25c-1.07,0-1.76-.12-2.07-.37s-.67-.93-1.05-2.06c-.05-.09-.12-.21-.21-.33s-.2-.28-.32-.46c-.14-.27-.26-.47-.37-.61s-.19-.2-.26-.2c-.19,0-.44.13-.76.38s-.7.63-1.16,1.13c-.06-.15-.13-.33-.22-.54s-.18-.46-.27-.74c-.02-.07-.05-.13-.09-.19s-.08-.11-.12-.14ZM179.15,10.85c.29,0,.51.06.64.18s.2.29.2.51c-.07.33-.13.6-.18.83-.12.42-.22.77-.31,1.04s-.16.46-.2.58c-.11.26-.25.48-.43.68s-.4.37-.66.52c-.27.19-.5.32-.68.4s-.31.11-.38.1c-.2-.02-.39-.04-.57-.06s-.36-.03-.54-.03c-.15-.08-.27-.24-.36-.47s-.13-.55-.13-.95c0-.35.21-.79.64-1.33s.81-.82,1.13-.85c.2-.25.43-.53.7-.84.12-.08.27-.15.46-.2s.4-.08.65-.08Z"/>
  <path d="M181.86,24.72l.16-.14c.01-.13.09-.28.25-.46s.37-.38.65-.62c.18-.13.36-.25.55-.37s.38-.25.55-.39c.74-.63,1.45-1.24,2.14-1.83.4-.35.8-.65,1.2-.91s.77-.45,1.12-.61c.25-.32.71-.64,1.38-.97s1.22-.49,1.64-.49c.16,0,.3.05.4.14s.16.21.18.35v.97c0,.34-.1.64-.29.91s-.48.51-.87.73c-.26.12-.52.25-.77.39s-.52.27-.77.39c-.09.12-.34.34-.75.66-.4.32-.95.75-1.64,1.29-.32.25-.58.47-.79.66s-.36.35-.44.47c-.12.22-.21.47-.27.74s-.1.58-.1.93c0,.27.04.5.12.69s.21.35.37.47c.12.08.28.16.48.25s.46.16.76.25c.18-.07.41-.14.69-.2s.61-.15.96-.25c.4-.23.81-.48,1.22-.74s.83-.52,1.24-.79c.06-.04.13-.07.22-.11s.18-.1.27-.18c.12-.15.28-.33.48-.53s.45-.43.75-.69c.47,1.02.7,1.56.7,1.62-.43.35-.87.71-1.32,1.08s-.96.67-1.53.91c-.19.15-.35.29-.47.42-.59.59-1.27,1.03-2.05,1.33s-1.67.45-2.66.45c-.22,0-.42-.02-.6-.05s-.32-.08-.44-.14c-.35-.23-.65-.44-.9-.62-.26-.19-.47-.37-.65-.54s-.3-.33-.39-.48c-.11-.16-.18-.36-.22-.6s-.06-.52-.06-.86c0-.09.03-.25.09-.46s.09-.36.09-.44c-.08-.26-.18-.52-.3-.79s-.25-.54-.4-.83Z"/>
  <path d="M192.95,24.72s.09-.08.14-.15.1-.17.16-.31c.07-.12.17-.24.3-.38s.28-.28.46-.45c.33-.27.62-.61.89-1.01.26-.4.52-.87.78-1.4.34-.74.65-1.37.93-1.88s.54-.91.77-1.18c.07-.27.21-.7.42-1.28s.49-1.35.84-2.29c.34-.89.63-1.61.86-2.17s.41-.94.53-1.15c.05-.08.11-.19.18-.32s.14-.29.18-.47c.16-.55.36-1.06.58-1.54s.45-.92.69-1.34c.06-.11.13-.19.22-.25s.18-.09.27-.09c.47,0,.82.18,1.05.54s.34.9.34,1.6c0,.79-.25,1.87-.76,3.26s-1.28,3.07-2.32,5.05c-.21.45-.44.99-.69,1.63s-.49,1.38-.74,2.21c-.2.64-.39,1.3-.58,1.97-.19.67-.38,1.32-.58,1.97-.19.62-.33,1.11-.42,1.47s-.14.59-.14.71c0,.08.01.14.04.18s.07.05.13.05c.12,0,.22-.04.31-.11s.16-.17.2-.3c.23-.34.47-.72.69-1.15s.46-.9.69-1.42l.05-.51c.08-.77.26-1.31.53-1.62.27-.3.77-.54,1.51-.72.09-.04.33-.35.71-.95s.89-1.48,1.52-2.65c.35-.62.64-1.09.88-1.4s.41-.47.53-.47c.27,0,.46.09.58.26s.18.44.18.79c0,.9-.5,2.04-1.51,3.41s-1.51,2.27-1.51,2.71c0,.3.27.77.81,1.4s.98.94,1.34.94c.12,0,.25-.04.4-.11s.32-.2.52-.36c.15-.12.3-.24.45-.38s.31-.26.48-.38l.7,1.62c-.3.27-.59.54-.87.81s-.57.53-.87.79c-.34.33-.68.57-1.02.73s-.68.24-1.02.24-.95-.36-1.78-1.08-1.29-1.08-1.34-1.08c-.43.4-.81.8-1.14,1.2-.21.26-.42.51-.62.75s-.41.49-.62.75c-.06.08-.15.18-.28.3s-.28.25-.44.4c-.16.23-.35.46-.55.68s-.46.33-.76.33c-.47,0-.82-.13-1.05-.4s-.35-.68-.35-1.23.05-1.16.15-1.79.25-1.29.47-1.99c.08-.33.15-.62.19-.87s.07-.47.07-.66l-.12-.18c-.15.19-.35.41-.58.67s-.51.57-.83.95c-.05.04-.1.1-.15.18s-.17.26-.36.52c-.06-.15-.13-.33-.22-.54s-.18-.46-.27-.74c-.02-.07-.05-.13-.09-.19s-.08-.11-.12-.14Z"/>
  <path d="M206.82,24.72l.16-.14c.01-.13.09-.28.25-.46s.37-.38.65-.62c.18-.13.36-.25.55-.37s.38-.25.55-.39c.74-.63,1.45-1.24,2.14-1.83.4-.35.8-.65,1.2-.91s.77-.45,1.12-.61c.25-.32.71-.64,1.38-.97s1.22-.49,1.64-.49c.16,0,.3.05.4.14s.16.21.18.35v.97c0,.34-.1.64-.29.91s-.48.51-.87.73c-.26.12-.52.25-.77.39s-.52.27-.77.39c-.09.12-.34.34-.75.66-.4.32-.95.75-1.64,1.29-.32.25-.58.47-.79.66s-.36.35-.44.47c-.12.22-.21.47-.27.74s-.1.58-.1.93c0,.27.04.5.12.69s.21.35.37.47c.12.08.28.16.48.25s.46.16.76.25c.18-.07.41-.14.69-.2s.61-.15.96-.25c.4-.23.81-.48,1.22-.74s.83-.52,1.24-.79c.06-.04.13-.07.22-.11s.18-.1.27-.18c.12-.15.28-.33.48-.53s.45-.43.75-.69c.47,1.02.7,1.56.7,1.62-.43.35-.87.71-1.32,1.08s-.96.67-1.53.91c-.19.15-.35.29-.47.42-.59.59-1.27,1.03-2.05,1.33s-1.67.45-2.66.45c-.22,0-.42-.02-.6-.05s-.32-.08-.44-.14c-.35-.23-.65-.44-.9-.62-.26-.19-.47-.37-.65-.54s-.3-.33-.39-.48c-.11-.16-.18-.36-.22-.6s-.06-.52-.06-.86c0-.09.03-.25.09-.46s.09-.36.09-.44c-.08-.26-.18-.52-.3-.79s-.25-.54-.4-.83Z"/>
  <path d="M217.91,24.72c.08-.08.17-.19.25-.33s.19-.28.31-.45l1.35-.93c.16-.2.42-.45.76-.76s.76-.69,1.27-1.13c.06-.13.16-.28.29-.45s.3-.34.48-.5c.16-.15.33-.3.49-.43s.32-.27.46-.4c.18-.18.34-.35.5-.53s.32-.35.48-.51c.19-.16.38-.29.58-.39s.42-.14.65-.14c.26,0,.45.03.59.1s.21.16.22.27c-.12.27-.24.54-.37.81l.11.16c.52-.2.92-.35,1.21-.44s.48-.14.56-.14c.86,0,1.5.26,1.92.78s.64,1.31.64,2.36c0,.2-.02.43-.07.7s-.12.56-.23.88c-.12.35-.24.64-.38.88s-.26.4-.38.51c.05.15.1.26.16.33s.13.1.23.1.19-.03.29-.09.22-.15.36-.26c.12.26.23.52.34.8s.23.55.34.82c-.21.19-.42.37-.62.54s-.41.35-.63.51c-.27.22-.52.38-.76.48s-.48.15-.71.15c-.27,0-.49-.06-.67-.19s-.32-.31-.42-.54c-.29.39-.65.74-1.06,1.06s-.88.59-1.38.8c-.29.14-.56.25-.8.33s-.46.11-.66.11c-.06,0-.17.02-.34.07s-.31.07-.41.07c-.67,0-1.27-.28-1.81-.84s-.81-1.19-.81-1.88c0-.28.06-.65.19-1.12s.19-.74.19-.82-.03-.15-.08-.2-.13-.08-.22-.08c-.06,0-.2.09-.42.26s-.54.43-.95.76c-.04.05-.08.12-.12.21s-.12.2-.23.32c-.09-.27-.2-.54-.32-.82s-.25-.54-.39-.8ZM226.37,21.5c-.06.01-.14.07-.25.18s-.22.25-.33.41c-.16.27-.35.56-.56.88-.13.14-.27.25-.41.33s-.31.13-.5.17c-.12.01-.24.13-.37.34s-.26.53-.39.94c-.13.36-.22.67-.28.93s-.09.47-.09.65c0,.33.08.57.25.74s.42.25.76.25c.54,0,1.03-.15,1.49-.45s.88-.75,1.27-1.34c.19-.22.36-.43.53-.63.09-.07.17-.18.23-.34s.12-.35.18-.59l.32-1c-.11-.35-.21-.63-.3-.83s-.19-.33-.28-.38c-.06-.04-.19-.07-.39-.11s-.49-.08-.86-.13Z"/>
  <path d="M230.62,24.72l.11-.12.05-.18c.32-.43.87-1,1.67-1.7.8-.7,1.35-1.26,1.65-1.7.12-.19.25-.32.4-.4s.3-.12.46-.12c.41,0,.76.1,1.04.31s.47.51.56.92c.08.36.16.73.23,1.1.07.37.13.74.18,1.12.08.23.18.59.3,1.06s.21.75.26.82c.06.12.15.2.26.25s.26.08.44.08c.21,0,.43-.04.65-.11s.45-.21.69-.4c.18-.15.36-.31.55-.47s.38-.31.57-.47l.7,1.62c-.19.19-.44.4-.75.64s-.68.52-1.12.83c-.48.35-.89.61-1.23.78s-.6.25-.77.25c-1.07,0-1.76-.12-2.07-.37s-.67-.93-1.05-2.06c-.05-.09-.12-.21-.21-.33s-.2-.28-.32-.46c-.14-.27-.26-.47-.37-.61s-.19-.2-.26-.2c-.19,0-.44.13-.76.38s-.7.63-1.16,1.13c-.06-.15-.13-.33-.22-.54s-.18-.46-.27-.74c-.02-.07-.05-.13-.09-.19s-.08-.11-.12-.14ZM237.97,10.85c.29,0,.51.06.64.18s.2.29.2.51c-.07.33-.13.6-.18.83-.12.42-.22.77-.31,1.04s-.16.46-.2.58c-.11.26-.25.48-.43.68s-.4.37-.66.52c-.27.19-.5.32-.68.4s-.31.11-.38.1c-.2-.02-.39-.04-.57-.06s-.36-.03-.54-.03c-.15-.08-.27-.24-.36-.47s-.13-.55-.13-.95c0-.35.21-.79.64-1.33s.81-.82,1.13-.85c.2-.25.43-.53.7-.84.12-.08.27-.15.46-.2s.4-.08.65-.08Z"/>
  <path d="M240.68,24.72c.05-.08.11-.17.18-.27s.17-.22.27-.36c.12-.09.27-.23.46-.4s.4-.38.63-.62c.21-.23.47-.52.77-.87s.67-.76,1.11-1.26c.19-.2.42-.45.7-.76s.62-.68,1-1.12c.33-.39.68-.67,1.05-.86s.77-.28,1.2-.28.73.13.93.4.3.65.3,1.15c0,.27-.1.79-.3,1.55s-.51,1.77-.93,3.02c-.11.23-.21.46-.3.67-.07.15-.12.29-.14.4s-.04.21-.04.26c0,.07.04.16.12.26.06-.04.11-.08.17-.14s.11-.13.18-.21c.09-.18.24-.36.43-.55s.42-.41.69-.64c.11-.2.24-.4.41-.59s.36-.37.57-.54c.05-.05.11-.12.18-.23.08-.11.17-.22.27-.33.15-.15.33-.31.54-.47s.46-.33.74-.51c.32-.16.6-.29.85-.39s.47-.14.66-.14c.36,0,.69.09.97.26s.52.45.72.83c.23.73.46,1.4.67,2.02.13.36.27.63.43.81s.34.26.54.26c.15,0,.29-.03.41-.09s.24-.15.34-.26l.7,1.62c-.2.16-.4.33-.62.51s-.42.35-.62.51c-.27.25-.52.42-.76.52s-.47.15-.7.15c-.27,0-.53-.06-.77-.18s-.46-.29-.63-.53c-.09-.09-.21-.27-.35-.52s-.3-.57-.49-.94c-.15-.15-.33-.35-.52-.61s-.42-.55-.68-.89l-.16-.05c-.22.07-.44.18-.66.32-.22.14-.45.32-.69.54-.53.47-.91.76-1.14.88-.23.12-.39.25-.47.4-.16.28-.45.64-.84,1.09-.4.45-.89.97-1.49,1.58-.15.15-.3.3-.46.45s-.3.29-.46.43c-.15.13-.33.22-.52.27s-.41.08-.64.08c-.47,0-.72-.16-.76-.48s-.08-.65-.11-.98c.18-.49.38-1.11.6-1.85s.48-1.6.77-2.58c0-.06.02-.14.06-.24s.09-.23.15-.4c.06-.15.1-.28.12-.4.02-.11.04-.21.04-.29s-.03-.15-.09-.19-.15-.07-.28-.07c-.12,0-.27.07-.47.21s-.42.36-.69.67c-.33.35-.59.63-.79.83s-.33.32-.4.35c-.12.08-.25.2-.41.35s-.34.32-.54.51l-.11.21c-.05.09-.12.2-.23.32-.05-.18-.13-.39-.25-.65s-.27-.58-.46-.97Z"/>
</svg>